#tb 0: 1001/30000
0,          0,          0,        1,    75936, 80fb3a643384386beadc0991f171669d
0,          1,          1,        1,    75936, 65a4a51163f49a75f8eeecd94cb2ba47
0,          2,          2,        1,    75936, d5b2aac9889d2991b83fd4360ada0258
0,          3,          3,        1,    75936, 7958ff5535358567ea7df351d78256a7
0,          4,          4,        1,    75936, 7e7413b9a61967d0ade07b81944e9a15
0,          5,          5,        1,    75936, 40a008016adbf9673adbbc4c0edb4454
0,          6,          6,        1,    75936, fef7b5e2809ef79917ab394a067ef4be
0,          7,          7,        1,    75936, 91ee2360faf46a25b95927c55eea603f
0,          8,          8,        1,    75936, a47f14a80a529f79f97accbe23188046
0,          9,          9,        1,    75936, 3613bcd41ff13006fbba3bd0087c44f4
